# xmcd
#
# Track frame offsets: 
#        150
#        17627
#        32593
#        47290
#        66553
#        78792
#        93640
#        120789
#        146803
#        163703
#        183649
#        205175
#
# Disc length: 3143 seconds
#
# Revision: 0
# Processed by: cddbd v1.5.2PL0 Copyright (c) Steve Scherf et al.
# Submitted via: ExactAudioCopy v0.95a4
#
DISCID=9a0c450c
DTITLE=Scott "Shack" Hackler - I'm Only Gonna Say This Twice!
DYEAR=2019
DGENRE=Blues
TTITLE0=Spread Joy
TTITLE1=Play Nice
TTITLE2=This Room
TTITLE3=Everybody Has The Blues
TTITLE4=I Can Play A Shuffle (All By Myself)
TTITLE5=You Don't Have To Tell Me
TTITLE6=Shack's Blues
TTITLE7=The Best Days
TTITLE8=Red Light Of Dawn
TTITLE9=I Got Blues
TTITLE10=I Am A Piano Man
TTITLE11=Lonely Walk
EXTD=
EXTT0=
EXTT1=
EXTT2=
EXTT3=
EXTT4=
EXTT5=
EXTT6=
EXTT7=
EXTT8=
EXTT9=
EXTT10=
EXTT11=
PLAYORDER=
